<?xml version="1.0" ?><svg viewBox="0 0 64 64" xmlns="http://www.w3.org/2000/svg"><title/><g data-name="51-woman" id="_51-woman"><path d="M45,57v6H19V57H13V44.25a3.994,3.994,0,0,1,3.18-3.92l.85-.17,9.3-1.88a1.918,1.918,0,0,0,.67-.24c.01.49.27,4.96,5,4.96s4.99-4.47,5-4.96a1.918,1.918,0,0,0,.67.24l9.3,1.88.85.17A3.994,3.994,0,0,1,51,44.25V57Z" style="fill:#fc979e"/><path d="M47.82,40.33l-.85-.17-9.3-1.88a1.918,1.918,0,0,1-.67-.24c-.01.49-.27,4.96-5,4.96s-4.99-4.47-5-4.96a1.918,1.918,0,0,1-.67.24l-9.3,1.88-.85.17A3.994,3.994,0,0,0,13,44.25v3a3.994,3.994,0,0,1,3.18-3.92l.85-.17,9.3-1.88a1.918,1.918,0,0,0,.67-.24c.01.49.27,4.96,5,4.96s4.99-4.47,5-4.96a1.918,1.918,0,0,0,.67.24l9.3,1.88.85.17A3.994,3.994,0,0,1,51,47.25v-3A3.994,3.994,0,0,0,47.82,40.33Z" style="fill:#ff475a"/><path d="M37,38.04c-.01.49-.27,4.96-5,4.96s-4.99-4.47-5-4.96a1.976,1.976,0,0,0,1-1.73V33l.03-.06a7.964,7.964,0,0,0,7.94,0L36,33v3.31A1.976,1.976,0,0,0,37,38.04Z" style="fill:#ffb680"/><path d="M36,39.31a1.988,1.988,0,0,0,.386,1.16A6.278,6.278,0,0,0,37,38.04a1.976,1.976,0,0,1-1-1.73Z" style="fill:#eb975d"/><path d="M32,37a7.954,7.954,0,0,0,3.97-1.06L36,36V33l-.03-.06a7.964,7.964,0,0,1-7.94,0L28,33v3l.03-.06A7.954,7.954,0,0,0,32,37Z" style="fill:#eb975d"/><path d="M28,39.31v-3a1.976,1.976,0,0,1-1,1.73,6.278,6.278,0,0,0,.614,2.43A1.988,1.988,0,0,0,28,39.31Z" style="fill:#eb975d"/><rect height="6" style="fill:#ffdaaa" width="6" x="13" y="57"/><rect height="6" style="fill:#ffdaaa" width="6" x="45" y="57"/><path d="M41,19l-1,7a7.992,7.992,0,0,1-11.97,6.94,7.838,7.838,0,0,1-1.69-1.28A8.014,8.014,0,0,1,24,26v-.9C31.17,21.01,32.16,10,34,10a1.959,1.959,0,0,1,2,2,4.38,4.38,0,0,1,3-1C40,11,40.25,15,41,19Z" style="fill:#ffdaaa"/><path d="M34,13a1.959,1.959,0,0,1,2,2,4.38,4.38,0,0,1,3-1c.887,0,1.185,3.149,1.764,6.652L41,19c-.75-4-1-8-2-8a4.38,4.38,0,0,0-3,1,1.959,1.959,0,0,0-2-2c-1.84,0-2.83,11.01-10,15.1V26a7.951,7.951,0,0,0,.249,1.946C31.189,23.745,32.182,13,34,13Z" style="fill:#ffb680"/><path d="M37,38.04a1.976,1.976,0,0,1-1-1.73V33l-.03-.06A7.974,7.974,0,0,0,40,26l1-7c.68,3.6,1.76,7.2,4.15,7.88A31.044,31.044,0,0,0,45,30c0,5,2,5,2,10l-.03.16-9.3-1.88A1.918,1.918,0,0,1,37,38.04Z" style="fill:#704021"/><path d="M27,38.04a1.918,1.918,0,0,1-.67.24l-9.3,1.88L17,40c0-5,2-5,2-10a32.172,32.172,0,0,0-.24-4H22a10.682,10.682,0,0,0,2-.9V26a8.014,8.014,0,0,0,2.34,5.66,7.838,7.838,0,0,0,1.69,1.28L28,33v3.31A1.976,1.976,0,0,1,27,38.04Z" style="fill:#704021"/><path d="M24,25.1a10.682,10.682,0,0,1-2,.9H18.76A69.667,69.667,0,0,1,18,15a14,14,0,0,1,28,0,79.119,79.119,0,0,1-.85,11.88C42.76,26.2,41.68,22.6,41,19c-.75-4-1-8-2-8a4.38,4.38,0,0,0-3,1,1.959,1.959,0,0,0-2-2C32.16,10,31.17,21.01,24,25.1Z" style="fill:#b25e1e"/><path d="M45.15,22.88C42.76,22.2,41.68,18.6,41,15c-.75-4-1-8-2-8a4.38,4.38,0,0,0-3,1,1.959,1.959,0,0,0-2-2c-1.84,0-2.83,11.01-10,15.1a10.682,10.682,0,0,1-2,.9H18.76a69.863,69.863,0,0,1-.714-7.9c-.02.3-.046.6-.046.9a69.667,69.667,0,0,0,.76,11H22a10.682,10.682,0,0,0,2-.9C31.17,21.01,32.16,10,34,10a1.959,1.959,0,0,1,2,2,4.38,4.38,0,0,1,3-1c1,0,1.25,4,2,8,.68,3.6,1.76,7.2,4.15,7.88A79.119,79.119,0,0,0,46,15c0-.308-.026-.61-.046-.913C45.814,18.569,45.382,20.522,45.15,22.88Z" style="fill:#d1813b"/><path d="M41,19l-1,7a7.992,7.992,0,0,1-11.97,6.94,7.838,7.838,0,0,1-1.69-1.28A8.014,8.014,0,0,1,24,26V25" style="fill:none;stroke:#000;stroke-linejoin:round;stroke-width:2px"/><path d="M28,33v3.31a1.976,1.976,0,0,1-1,1.73,1.918,1.918,0,0,1-.67.24l-9.3,1.88-.85.17A3.994,3.994,0,0,0,13,44.25V63H51V44.25a3.994,3.994,0,0,0-3.18-3.92l-.85-.17-9.3-1.88a1.918,1.918,0,0,1-.67-.24,1.976,1.976,0,0,1-1-1.73V33" style="fill:none;stroke:#000;stroke-linejoin:round;stroke-width:2px"/><polyline points="45 63 45 57 45 50" style="fill:none;stroke:#000;stroke-linejoin:round;stroke-width:2px"/><polyline points="19 63 19 57 19 50" style="fill:none;stroke:#000;stroke-linejoin:round;stroke-width:2px"/><path d="M47,40c0-5-2-5-2-10a31.044,31.044,0,0,1,.15-3.12A79.119,79.119,0,0,0,46,15a14,14,0,0,0-28,0,69.667,69.667,0,0,0,.76,11A32.172,32.172,0,0,1,19,30c0,5-2,5-2,10" style="fill:none;stroke:#000;stroke-linejoin:round;stroke-width:2px"/><path d="M27,38v.04c.01.49.27,4.96,5,4.96s4.99-4.47,5-4.96V38" style="fill:none;stroke:#000;stroke-linejoin:round;stroke-width:2px"/><line style="fill:none;stroke:#000;stroke-linejoin:round;stroke-width:2px" x1="13" x2="19" y1="57" y2="57"/><line style="fill:none;stroke:#000;stroke-linejoin:round;stroke-width:2px" x1="45" x2="51" y1="57" y2="57"/><path d="M18,26h4a10.682,10.682,0,0,0,2-.9C31.17,21.01,32.16,10,34,10a1.959,1.959,0,0,1,2,2,4.38,4.38,0,0,1,3-1c1,0,1.25,4,2,8,.68,3.6,1.76,7.2,4.15,7.88A2.96,2.96,0,0,0,46,27" style="fill:none;stroke:#000;stroke-linejoin:round;stroke-width:2px"/><line style="fill:none;stroke:#000;stroke-linejoin:round;stroke-width:2px" x1="32" x2="32" y1="43" y2="48"/></g></svg>